*
G04 Mass Parameters ***
*
G04 Image ***
*
%INC:\USERS\SIONOB\DOCUMENTS\PRODUCTS\RASPBERRY PI ADAPTER\LAYOUT\POE ADAPTER BOARD R2.DRD*%
%ICAS*%
%MOIN*%
%IPPOS*%
%ASAXBY*%
G74*%FSLAN2X34Y34*%
*
G04 Aperture Definitions ***
*
%ADD10C,0.1250*%
%ADD11R,0.0500X0.0360*%
%ADD12C,0.0550*%
%ADD13R,0.0550X0.0550*%
%ADD14R,0.0600X0.0600*%
%ADD15C,0.1200*%
%ADD16C,0.1320*%
%ADD17R,0.0320X0.1200*%
%ADD18C,0.1750*%
%ADD19C,0.1450*%
%ADD20C,0.1201*%
%ADD21C,0.0580*%
%ADD22R,0.0580X0.0580*%
%ADD23R,0.0700X0.1800*%
%ADD24R,0.0560X0.0840*%
%ADD25R,0.0550X0.0250*%
%ADD26R,0.1800X0.0600*%
%ADD27C,0.0500*%
%ADD28C,0.0010*%
%ADD29C,0.0600*%
%ADD30C,0.0300*%
%ADD31C,0.0500*%
%ADD32C,0.0400*%
%ADD33C,0.1250*%
%ADD34R,0.0600X0.0800*%
%ADD35C,0.0550*%
%ADD36R,0.0550X0.0550*%
%ADD37R,0.0600X0.0600*%
%ADD38R,0.0340X0.0320*%
%ADD39R,0.0760X0.0480*%
%ADD40R,0.0480X0.0760*%
%ADD41R,0.1000X0.0900*%
%ADD42R,0.0500X0.0360*%
%ADD43C,0.1200*%
%ADD44C,0.1320*%
%ADD45C,0.1750*%
%ADD46C,0.1450*%
%ADD47C,0.1201*%
%ADD48C,0.0580*%
%ADD49R,0.0580X0.0580*%
%ADD50R,0.0500X0.0500*%
%ADD51C,0.0500*%
%ADD52C,0.0120*%
%ADD53C,0.0200*%
%ADD54R,0.0540X0.0400*%
%ADD55C,0.1240*%
%ADD56R,0.0360X0.1240*%
%ADD57R,0.0740X0.1840*%
%ADD58R,0.0560X0.0840*%
%ADD59R,0.0590X0.0290*%
%ADD60R,0.1840X0.0640*%
%ADD61R,0.0380X0.0360*%
%ADD62R,0.0800X0.0520*%
%ADD63R,0.0520X0.0800*%
%ADD64R,0.1040X0.0940*%
%ADD65C,0.0080*%
%ADD66C,0.0060*%
%ADD67C,0.0100*%
%ADD68C,0.0050*%
%ADD69C,0.0150*%
%ADD70C,0.0550*%
%ADD71R,0.0550X0.0550*%
%ADD72R,0.0600X0.0600*%
%ADD73C,0.1750*%
%ADD74C,0.1450*%
%ADD75C,0.1181*%
%ADD76C,0.0580*%
%ADD77R,0.0580X0.0580*%
%ADD78R,0.0560X0.0840*%
%ADD79C,0.0079*%
%ADD80C,0.1181*%
*
G04 Plot Data ***
*
G54D67*
G01X0015958Y-0022300D02*
X0015292D01*
X0015625Y-0021633D01*
X0015792D01*
Y-0022633D01*
X0014342Y-0022467D02*
X0014508Y-0022633D01*
X0014842D01*
X0015008Y-0022467D01*
Y-0022300D01*
X0014675Y-0021967D01*
X0015008Y-0021633D01*
X0014342D01*
X0003562Y-0022633D02*
X0002979D01*
Y-0021633D01*
X0002696Y-0022300D02*
X0002029D01*
X0002696Y-0022633D02*
Y-0022133D01*
X0002446Y-0021633D01*
X0002279D01*
X0002029Y-0022133D01*
Y-0022633D01*
X0001412D02*
Y-0021633D01*
X0001746D02*
X0001079D01*
X0000212Y-0022633D02*
X0000129Y-0022467D01*
Y-0021800D01*
X0000212Y-0021633D01*
X0000712D01*
X0000796Y-0021800D01*
Y-0022467D01*
X0000712Y-0022633D01*
X0000212D01*
X-0000487D02*
Y-0021633D01*
X-0000154D02*
X-0000821D01*
X0023814Y-0020772D02*
Y-0020106D01*
X0023758Y-0020772D02*
X0024091D01*
X0024203Y-0020550D01*
Y-0020328D01*
X0024091Y-0020106D01*
X0023758D01*
X0023391Y-0020439D02*
X0023058D01*
X0023503Y-0020772D02*
X0023058D01*
Y-0020106D01*
X0023503D01*
X0022580Y-0020772D02*
Y-0020106D01*
X0022803D02*
X0022358D01*
X0022103Y-0020550D02*
X0021658D01*
X0022103Y-0020772D02*
Y-0020439D01*
X0021936Y-0020106D01*
X0021825D01*
X0021658Y-0020439D01*
Y-0020772D01*
X0021403D02*
X0021014D01*
Y-0020106D01*
X0020314Y-0020439D02*
X0020647D01*
X0020758Y-0020328D01*
Y-0020217D01*
X0020647Y-0020106D01*
X0020314D01*
Y-0020772D01*
X0020058Y-0020439D02*
X0019614D01*
X0019358Y-0020106D02*
Y-0020772D01*
X0019247Y-0020661D01*
X0019025Y-0020217D01*
X0018914Y-0020106D01*
Y-0020772D01*
X0018269D02*
X0018214Y-0020661D01*
Y-0020217D01*
X0018269Y-0020106D01*
X0018603D01*
X0018658Y-0020217D01*
Y-0020661D01*
X0018603Y-0020772D01*
X0018269D01*
X0017958Y-0020106D02*
Y-0020772D01*
X0017847Y-0020661D01*
X0017625Y-0020217D01*
X0017514Y-0020106D01*
Y-0020772D01*
X0015958Y-0020550D02*
X0015514D01*
X0015736Y-0020106D01*
X0015847D01*
Y-0020772D01*
X0002342D02*
X0001897D01*
X0002342Y-0020328D01*
Y-0020217D01*
X0002286Y-0020106D01*
X0001953D01*
X0001897Y-0020217D01*
X0001197Y-0020661D02*
X0001308Y-0020772D01*
X0001530D01*
X0001642Y-0020661D01*
Y-0020550D01*
X0001419Y-0020328D01*
X0001642Y-0020106D01*
X0001197D01*
X0000942Y-0020772D02*
X0000719D01*
X0000830D02*
Y-0020106D01*
X0000719Y-0020217D01*
X0000242Y-0020772D02*
X0000353D01*
Y-0020661D01*
X0000242D01*
Y-0020772D01*
X-0000403D02*
X-0000514Y-0020661D01*
X-0000569Y-0020550D01*
Y-0020328D01*
X-0000514Y-0020217D01*
X-0000403Y-0020106D01*
X-0000291D01*
X-0000180Y-0020217D01*
X-0000125Y-0020328D01*
Y-0020550D01*
X-0000180Y-0020661D01*
X-0000291Y-0020772D01*
X-0000403D01*
X0023814Y-0019272D02*
Y-0018606D01*
X0023758Y-0019272D02*
X0024091D01*
X0024203Y-0019050D01*
Y-0018828D01*
X0024091Y-0018606D01*
X0023758D01*
X0023391Y-0018939D02*
X0023058D01*
X0023503Y-0019272D02*
X0023058D01*
Y-0018606D01*
X0023503D01*
X0022580Y-0019272D02*
Y-0018606D01*
X0022803D02*
X0022358D01*
X0022103Y-0019050D02*
X0021658D01*
X0022103Y-0019272D02*
Y-0018939D01*
X0021936Y-0018606D01*
X0021825D01*
X0021658Y-0018939D01*
Y-0019272D01*
X0021403D02*
X0021014D01*
Y-0018606D01*
X0020314Y-0018939D02*
X0020647D01*
X0020758Y-0018828D01*
Y-0018717D01*
X0020647Y-0018606D01*
X0020314D01*
Y-0019272D01*
X0020058Y-0018939D02*
X0019614D01*
X0019358Y-0018606D02*
Y-0019272D01*
X0019247Y-0019161D01*
X0019025Y-0018717D01*
X0018914Y-0018606D01*
Y-0019272D01*
X0018269D02*
X0018214Y-0019161D01*
Y-0018717D01*
X0018269Y-0018606D01*
X0018603D01*
X0018658Y-0018717D01*
Y-0019161D01*
X0018603Y-0019272D01*
X0018269D01*
X0017958Y-0018606D02*
Y-0019272D01*
X0017847Y-0019161D01*
X0017625Y-0018717D01*
X0017514Y-0018606D01*
Y-0019272D01*
X0015958D02*
X0015514D01*
X0015958Y-0018828D01*
Y-0018717D01*
X0015903Y-0018606D01*
X0015569D01*
X0015514Y-0018717D01*
X0001897Y-0019161D02*
X0001953Y-0019272D01*
X0002286D01*
X0002342Y-0019161D01*
Y-0018939D01*
X0002230Y-0018828D01*
X0001897D01*
Y-0018606D01*
X0002342D01*
X0001642Y-0019272D02*
X0001197D01*
X0001642Y-0018828D01*
Y-0018717D01*
X0001586Y-0018606D01*
X0001253D01*
X0001197Y-0018717D01*
X0000942Y-0019272D02*
X0000719D01*
X0000830D02*
Y-0018606D01*
X0000719Y-0018717D01*
X0000242Y-0019272D02*
X0000353D01*
Y-0019161D01*
X0000242D01*
Y-0019272D01*
X-0000403D02*
X-0000514Y-0019161D01*
X-0000569Y-0019050D01*
Y-0018828D01*
X-0000514Y-0018717D01*
X-0000403Y-0018606D01*
X-0000291D01*
X-0000180Y-0018717D01*
X-0000125Y-0018828D01*
Y-0019050D01*
X-0000180Y-0019161D01*
X-0000291Y-0019272D01*
X-0000403D01*
X0015958Y-0017772D02*
X0015736D01*
X0015847D02*
Y-0017106D01*
X0015736Y-0017217D01*
X0001897Y-0017661D02*
X0001953Y-0017772D01*
X0002286D01*
X0002342Y-0017661D01*
Y-0017439D01*
X0002230Y-0017328D01*
X0001897D01*
Y-0017106D01*
X0002342D01*
X0001642Y-0017772D02*
X0001197D01*
X0001642Y-0017328D01*
Y-0017217D01*
X0001586Y-0017106D01*
X0001253D01*
X0001197Y-0017217D01*
X0000942Y-0017772D02*
X0000719D01*
X0000830D02*
Y-0017106D01*
X0000719Y-0017217D01*
X0000242Y-0017772D02*
X0000353D01*
Y-0017661D01*
X0000242D01*
Y-0017772D01*
X-0000403D02*
X-0000514Y-0017661D01*
X-0000569Y-0017550D01*
Y-0017328D01*
X-0000514Y-0017217D01*
X-0000403Y-0017106D01*
X-0000291D01*
X-0000180Y-0017217D01*
X-0000125Y-0017328D01*
Y-0017550D01*
X-0000180Y-0017661D01*
X-0000291Y-0017772D01*
X-0000403D01*
X0015958Y-0016272D02*
X0015514D01*
X0015958Y-0015828D01*
Y-0015717D01*
X0015903Y-0015606D01*
X0015569D01*
X0015514Y-0015717D01*
X0002064Y-0016272D02*
X0001953Y-0016161D01*
X0001897Y-0016050D01*
Y-0015828D01*
X0001953Y-0015717D01*
X0002064Y-0015606D01*
X0002175D01*
X0002286Y-0015717D01*
X0002342Y-0015828D01*
Y-0016050D01*
X0002286Y-0016161D01*
X0002175Y-0016272D01*
X0002064D01*
X0001642D02*
X0001419D01*
X0001530D02*
Y-0015606D01*
X0001419Y-0015717D01*
X0001053Y-0016272D02*
X0000831D01*
X0000942D02*
Y-0015606D01*
X0000831Y-0015717D01*
X0000353Y-0016272D02*
X0000464D01*
Y-0016161D01*
X0000353D01*
Y-0016272D01*
X-0000291D02*
X-0000403Y-0016161D01*
X-0000458Y-0016050D01*
Y-0015828D01*
X-0000403Y-0015717D01*
X-0000291Y-0015606D01*
X-0000180D01*
X-0000069Y-0015717D01*
X-0000014Y-0015828D01*
Y-0016050D01*
X-0000069Y-0016161D01*
X-0000180Y-0016272D01*
X-0000291D01*
X0015958Y-0014772D02*
X0015514D01*
X0015958Y-0014328D01*
Y-0014217D01*
X0015903Y-0014106D01*
X0015569D01*
X0015514Y-0014217D01*
X0002342Y-0014550D02*
X0001897D01*
X0002119Y-0014106D01*
X0002230D01*
Y-0014772D01*
X0001586Y-0014439D02*
X0001253D01*
X0001197Y-0014328D01*
Y-0014217D01*
X0001253Y-0014106D01*
X0001586D01*
X0001642Y-0014217D01*
Y-0014328D01*
X0001419Y-0014772D01*
X0000664D02*
X0000553Y-0014661D01*
X0000497Y-0014550D01*
Y-0014328D01*
X0000553Y-0014217D01*
X0000664Y-0014106D01*
X0000775D01*
X0000886Y-0014217D01*
X0000942Y-0014328D01*
Y-0014550D01*
X0000886Y-0014661D01*
X0000775Y-0014772D01*
X0000664D01*
X0000131D02*
X0000242D01*
Y-0014661D01*
X0000131D01*
Y-0014772D01*
X-0000514D02*
X-0000625Y-0014661D01*
X-0000680Y-0014550D01*
Y-0014328D01*
X-0000625Y-0014217D01*
X-0000514Y-0014106D01*
X-0000403D01*
X-0000292Y-0014217D01*
X-0000236Y-0014328D01*
Y-0014550D01*
X-0000292Y-0014661D01*
X-0000403Y-0014772D01*
X-0000514D01*
X0015958Y-0013050D02*
X0015514D01*
X0015736Y-0012606D01*
X0015847D01*
Y-0013272D01*
X0002064D02*
X0001953Y-0013161D01*
X0001897Y-0013050D01*
Y-0012828D01*
X0001953Y-0012717D01*
X0002064Y-0012606D01*
X0002175D01*
X0002286Y-0012717D01*
X0002342Y-0012828D01*
Y-0013050D01*
X0002286Y-0013161D01*
X0002175Y-0013272D01*
X0002064D01*
X0001308D02*
X0001642Y-0012606D01*
X0001197D01*
X0000664Y-0013272D02*
X0000553Y-0013161D01*
X0000497Y-0013050D01*
Y-0012828D01*
X0000553Y-0012717D01*
X0000664Y-0012606D01*
X0000775D01*
X0000886Y-0012717D01*
X0000942Y-0012828D01*
Y-0013050D01*
X0000886Y-0013161D01*
X0000775Y-0013272D01*
X0000664D01*
X0000131D02*
X0000242D01*
Y-0013161D01*
X0000131D01*
Y-0013272D01*
X-0000514D02*
X-0000625Y-0013161D01*
X-0000680Y-0013050D01*
Y-0012828D01*
X-0000625Y-0012717D01*
X-0000514Y-0012606D01*
X-0000403D01*
X-0000292Y-0012717D01*
X-0000236Y-0012828D01*
Y-0013050D01*
X-0000292Y-0013161D01*
X-0000403Y-0013272D01*
X-0000514D01*
X0015958Y-0011550D02*
X0015514D01*
X0015736Y-0011106D01*
X0015847D01*
Y-0011772D01*
X0002064D02*
X0001953Y-0011661D01*
X0001897Y-0011550D01*
Y-0011328D01*
X0001953Y-0011217D01*
X0002064Y-0011106D01*
X0002175D01*
X0002286Y-0011217D01*
X0002342Y-0011328D01*
Y-0011550D01*
X0002286Y-0011661D01*
X0002175Y-0011772D01*
X0002064D01*
X0001642Y-0011550D02*
X0001197D01*
X0001419Y-0011106D01*
X0001530D01*
Y-0011772D01*
X0000664D02*
X0000553Y-0011661D01*
X0000497Y-0011550D01*
Y-0011328D01*
X0000553Y-0011217D01*
X0000664Y-0011106D01*
X0000775D01*
X0000886Y-0011217D01*
X0000942Y-0011328D01*
Y-0011550D01*
X0000886Y-0011661D01*
X0000775Y-0011772D01*
X0000664D01*
X0000131D02*
X0000242D01*
Y-0011661D01*
X0000131D01*
Y-0011772D01*
X-0000514D02*
X-0000625Y-0011661D01*
X-0000680Y-0011550D01*
Y-0011328D01*
X-0000625Y-0011217D01*
X-0000514Y-0011106D01*
X-0000403D01*
X-0000292Y-0011217D01*
X-0000236Y-0011328D01*
Y-0011550D01*
X-0000292Y-0011661D01*
X-0000403Y-0011772D01*
X-0000514D01*
X0015958Y-0010050D02*
X0015514D01*
X0015736Y-0009606D01*
X0015847D01*
Y-0010272D01*
X0002342Y-0010050D02*
X0001897D01*
X0002119Y-0009606D01*
X0002230D01*
Y-0010272D01*
X0001197Y-0010161D02*
X0001308Y-0010272D01*
X0001530D01*
X0001642Y-0010161D01*
Y-0010050D01*
X0001419Y-0009828D01*
X0001642Y-0009606D01*
X0001197D01*
X0000664Y-0010272D02*
X0000553Y-0010161D01*
X0000497Y-0010050D01*
Y-0009828D01*
X0000553Y-0009717D01*
X0000664Y-0009606D01*
X0000775D01*
X0000886Y-0009717D01*
X0000942Y-0009828D01*
Y-0010050D01*
X0000886Y-0010161D01*
X0000775Y-0010272D01*
X0000664D01*
X0000131D02*
X0000242D01*
Y-0010161D01*
X0000131D01*
Y-0010272D01*
X-0000514D02*
X-0000625Y-0010161D01*
X-0000680Y-0010050D01*
Y-0009828D01*
X-0000625Y-0009717D01*
X-0000514Y-0009606D01*
X-0000403D01*
X-0000292Y-0009717D01*
X-0000236Y-0009828D01*
Y-0010050D01*
X-0000292Y-0010161D01*
X-0000403Y-0010272D01*
X-0000514D01*
X0015958Y-0008772D02*
X0015736D01*
X0015847D02*
Y-0008106D01*
X0015736Y-0008217D01*
X0015369Y-0008772D02*
X0015147D01*
X0015258D02*
Y-0008106D01*
X0015147Y-0008217D01*
X0002286Y-0008439D02*
X0002342Y-0008328D01*
Y-0008217D01*
X0002286Y-0008106D01*
X0001953D01*
X0001897Y-0008217D01*
Y-0008328D01*
X0001953Y-0008439D01*
X0002286D01*
X0002342Y-0008550D01*
Y-0008661D01*
X0002286Y-0008772D01*
X0001953D01*
X0001897Y-0008661D01*
Y-0008550D01*
X0001953Y-0008439D01*
X0001642Y-0008772D02*
X0001197D01*
X0001642Y-0008328D01*
Y-0008217D01*
X0001586Y-0008106D01*
X0001253D01*
X0001197Y-0008217D01*
X0000664Y-0008772D02*
X0000553Y-0008661D01*
X0000497Y-0008550D01*
Y-0008328D01*
X0000553Y-0008217D01*
X0000664Y-0008106D01*
X0000775D01*
X0000886Y-0008217D01*
X0000942Y-0008328D01*
Y-0008550D01*
X0000886Y-0008661D01*
X0000775Y-0008772D01*
X0000664D01*
X0000131D02*
X0000242D01*
Y-0008661D01*
X0000131D01*
Y-0008772D01*
X-0000514D02*
X-0000625Y-0008661D01*
X-0000680Y-0008550D01*
Y-0008328D01*
X-0000625Y-0008217D01*
X-0000514Y-0008106D01*
X-0000403D01*
X-0000292Y-0008217D01*
X-0000236Y-0008328D01*
Y-0008550D01*
X-0000292Y-0008661D01*
X-0000403Y-0008772D01*
X-0000514D01*
X0024362Y-0006633D02*
X0023862D01*
X0024529Y-0007133D02*
X0023862D01*
Y-0006133D01*
X0024529D01*
X0023246Y-0007133D02*
Y-0006133D01*
X0023579D02*
X0022912D01*
X0022046Y-0007133D02*
X0021962Y-0006967D01*
Y-0006300D01*
X0022046Y-0006133D01*
X0022546D01*
X0022629Y-0006300D01*
Y-0006967D01*
X0022546Y-0007133D01*
X0022046D01*
X0021679Y-0006133D02*
Y-0007133D01*
X0021512Y-0006967D01*
X0021179Y-0006300D01*
X0021012Y-0006133D01*
Y-0007133D01*
X0015175D02*
Y-0006633D01*
X0015508Y-0006133D02*
X0015258Y-0006633D01*
X0015092D01*
X0014842Y-0006133D01*
X0014225Y-0007133D02*
Y-0006133D01*
X0014558D02*
X0013892D01*
X0013275Y-0006800D02*
X0013608Y-0007133D01*
X0012942Y-0006967D02*
X0013025Y-0007133D01*
X0013358D01*
X0013442Y-0006967D01*
X0013608Y-0006800D01*
Y-0006300D01*
X0013525Y-0006133D01*
X0013025D01*
X0012942Y-0006300D01*
Y-0006967D01*
X0008658Y-0007133D02*
X0008075D01*
Y-0006133D01*
X0007208Y-0007133D02*
X0007125Y-0006967D01*
Y-0006300D01*
X0007208Y-0006133D01*
X0007708D01*
X0007792Y-0006300D01*
Y-0006967D01*
X0007708Y-0007133D01*
X0007208D01*
X0006508D02*
Y-0006133D01*
X0006842D02*
X0006175D01*
X0000837Y-0007133D02*
Y-0006133D01*
X0000671Y-0006300D01*
X0000504Y-0006633D01*
X0000337Y-0006300D01*
X0000171Y-0006133D01*
Y-0007133D01*
X-0000112Y-0006800D02*
X-0000779D01*
X-0000112Y-0007133D02*
Y-0006633D01*
X-0000362Y-0006133D01*
X-0000529D01*
X-0000779Y-0006633D01*
Y-0007133D01*
X-0001062D02*
X-0001396D01*
X-0001229D02*
Y-0006133D01*
X-0001062D02*
X-0001396D01*
X-0002429Y-0007133D02*
Y-0006133D01*
X-0002512Y-0007133D02*
X-0002012D01*
X-0001846Y-0006800D01*
Y-0006467D01*
X-0002012Y-0006133D01*
X-0002512D01*
X-0005600Y-0007133D02*
Y-0006133D01*
X-0005767Y-0006300D01*
X-0005933Y-0006633D01*
X-0006100Y-0006300D01*
X-0006267Y-0006133D01*
Y-0007133D01*
X-0006883D02*
Y-0006633D01*
X-0006550Y-0006133D02*
X-0006800Y-0006633D01*
X-0006967D01*
X-0007217Y-0006133D01*
X-0007500Y-0006300D02*
X-0007583Y-0006133D01*
X-0008083D01*
X-0008167Y-0006300D01*
Y-0006467D01*
X-0008083Y-0006633D01*
X-0007583D01*
X-0007500Y-0006800D01*
Y-0006967D01*
X-0007583Y-0007133D01*
X-0008083D01*
X-0008167Y-0006967D01*
X0014687Y-0005133D02*
Y-0004133D01*
X0015021D02*
X0014354D01*
X0013821Y-0004633D02*
X0014071Y-0005133D01*
X0013404Y-0004633D02*
X0013904D01*
X0014071Y-0004467D01*
Y-0004300D01*
X0013904Y-0004133D01*
X0013404D01*
Y-0005133D01*
X0013121Y-0004800D02*
X0012454D01*
X0013121Y-0005133D02*
Y-0004633D01*
X0012871Y-0004133D01*
X0012704D01*
X0012454Y-0004633D01*
Y-0005133D01*
X0012171Y-0004633D02*
X0011504D01*
X0012171Y-0005133D02*
Y-0004133D01*
X0011504Y-0005133D02*
Y-0004133D01*
X0011221Y-0004967D02*
X0011137Y-0005133D01*
X0010637D01*
X0010554Y-0004967D01*
Y-0004300D01*
X0010637Y-0004133D01*
X0011137D01*
X0011221Y-0004300D01*
X0008946Y-0005133D02*
X0008362D01*
Y-0004133D01*
X0008079Y-0005133D02*
X0007496D01*
Y-0004133D01*
X0007212Y-0005133D02*
X0006879D01*
X0007046D02*
Y-0004133D01*
X0007212D02*
X0006879D01*
X0006179Y-0004633D02*
X0006429Y-0005133D01*
X0005762Y-0004633D02*
X0006262D01*
X0006429Y-0004467D01*
Y-0004300D01*
X0006262Y-0004133D01*
X0005762D01*
Y-0005133D01*
X0004896D02*
Y-0004133D01*
X0004812Y-0005133D02*
X0005312D01*
X0005479Y-0004800D01*
Y-0004467D01*
X0005312Y-0004133D01*
X0004812D01*
X-0007175Y-0020450D02*
Y-0020650D01*
X-0007025Y-0020300D02*
X-0007175Y-0020450D01*
X-0006825Y-0020300D02*
X-0007025D01*
X-0006675Y-0020450D02*
X-0006825Y-0020300D01*
X-0006675Y-0020650D02*
Y-0020450D01*
X-0006825Y-0020800D02*
X-0006675Y-0020650D01*
X-0007025Y-0020800D02*
X-0006825D01*
X-0007175Y-0020650D02*
X-0007025Y-0020800D01*
X-0006925Y-0018900D02*
X-0007175Y-0019150D01*
X-0006675D02*
X-0006925Y-0018900D01*
X-0007175Y-0019150D02*
X-0006675D01*
X-0007175Y-0017300D02*
Y-0017550D01*
X-0006925Y-0017300D02*
X-0007175D01*
X-0006925Y-0017800D02*
Y-0017300D01*
X-0006675Y-0017800D02*
X-0006925D01*
X-0006675Y-0017550D02*
Y-0017800D01*
X-0007175Y-0017550D02*
X-0006675D01*
X-0007175Y-0015800D02*
Y-0016300D01*
X-0006675Y-0015800D02*
X-0007175D01*
X-0006675Y-0016300D02*
Y-0015800D01*
X-0007175Y-0016300D02*
X-0006675D01*
Y-0016050D02*
X-0007175D01*
X-0006925Y-0015800D02*
Y-0016300D01*
X-0007175Y-0014300D02*
Y-0014800D01*
X-0006675Y-0014300D02*
X-0007175D01*
X-0006675Y-0014800D02*
Y-0014300D01*
X-0007175Y-0014800D02*
X-0006675D01*
Y-0014300D02*
X-0007175Y-0014800D01*
X-0006675D02*
X-0007175Y-0014300D01*
X-0006925Y-0012800D02*
X-0007175Y-0013050D01*
X-0006675D02*
X-0006925Y-0012800D01*
Y-0013300D02*
X-0006675Y-0013050D01*
X-0007175D02*
X-0006925Y-0013300D01*
X-0006675Y-0011550D02*
X-0007175D01*
X-0006925Y-0011300D02*
Y-0011800D01*
X-0006675Y-0009800D02*
X-0007175Y-0010300D01*
X-0006675D02*
X-0007175Y-0009800D01*
Y-0008450D02*
Y-0008650D01*
X-0006925Y-0008700D02*
X-0007175Y-0008450D01*
X-0006675D02*
X-0006925Y-0008700D01*
X-0006675Y-0008650D02*
Y-0008450D01*
X-0006925Y-0008400D02*
X-0006675Y-0008650D01*
X-0007175D02*
X-0006925Y-0008400D01*
X0028550Y-0023350D02*
X-0008800D01*
X0028500Y-0023300D02*
X-0008750D01*
X0028500Y-0021300D02*
X-0008750D01*
X0028500Y-0019800D02*
X-0008750D01*
X0028500Y-0018300D02*
X-0008750D01*
X0028500Y-0016800D02*
X-0008750D01*
X0028500Y-0015300D02*
X-0008750D01*
X0028500Y-0013800D02*
X-0008750D01*
X0028500Y-0012300D02*
X-0008750D01*
X0028500Y-0010800D02*
X-0008750D01*
X0028500Y-0009300D02*
X-0008750D01*
X0028500Y-0007800D02*
X-0008750D01*
X0028500Y-0007750D02*
X-0008750D01*
X0028500Y-0005800D02*
X-0008750D01*
X0028500Y-0005750D02*
X-0008750D01*
X0028500Y-0003800D02*
X-0008750D01*
X0028550Y-0003750D02*
X-0008800D01*
X0028550Y-0023300D02*
Y-0003800D01*
X0028500Y-0023300D02*
Y-0003800D01*
X0016958Y-0023300D02*
Y-0005800D01*
X0011408Y-0023300D02*
Y-0005800D01*
X0003342Y-0021300D02*
Y-0005800D01*
X-0005050Y-0021300D02*
Y-0005800D01*
X-0005100Y-0021300D02*
Y-0005800D01*
X-0008800Y-0023300D02*
Y-0003800D01*
X-0008750Y-0023300D02*
Y-0003800D01*
X0011630Y0018490D02*
Y0018290D01*
X0011880Y0018240D02*
X0011630Y0018490D01*
X0012130D02*
X0011880Y0018240D01*
X0012130Y0018290D02*
Y0018490D01*
X0011880Y0018540D02*
X0012130Y0018290D01*
X0011630D02*
X0011880Y0018540D01*
X0013600Y0013620D02*
Y0013420D01*
X0013850Y0013370D02*
X0013600Y0013620D01*
X0014100D02*
X0013850Y0013370D01*
X0014100Y0013420D02*
Y0013620D01*
X0013850Y0013670D02*
X0014100Y0013420D01*
X0013600D02*
X0013850Y0013670D01*
X0007740Y0013710D02*
Y0013510D01*
X0007990Y0013460D02*
X0007740Y0013710D01*
X0008240D02*
X0007990Y0013460D01*
X0008240Y0013510D02*
Y0013710D01*
X0007990Y0013760D02*
X0008240Y0013510D01*
X0007740D02*
X0007990Y0013760D01*
X0004700Y0011970D02*
Y0011770D01*
X0004950Y0011720D02*
X0004700Y0011970D01*
X0005200D02*
X0004950Y0011720D01*
X0005200Y0011770D02*
Y0011970D01*
X0004950Y0012020D02*
X0005200Y0011770D01*
X0004700D02*
X0004950Y0012020D01*
X0018000Y0013700D02*
Y0013500D01*
X0018250Y0013450D02*
X0018000Y0013700D01*
X0018500D02*
X0018250Y0013450D01*
X0018500Y0013500D02*
Y0013700D01*
X0018250Y0013750D02*
X0018500Y0013500D01*
X0018000D02*
X0018250Y0013750D01*
X0020400Y0015100D02*
Y0014900D01*
X0020650Y0014850D02*
X0020400Y0015100D01*
X0020900D02*
X0020650Y0014850D01*
X0020900Y0014900D02*
Y0015100D01*
X0020650Y0015150D02*
X0020900Y0014900D01*
X0020400D02*
X0020650Y0015150D01*
X0020400Y0017200D02*
Y0017000D01*
X0020650Y0016950D02*
X0020400Y0017200D01*
X0020900D02*
X0020650Y0016950D01*
X0020900Y0017000D02*
Y0017200D01*
X0020650Y0017250D02*
X0020900Y0017000D01*
X0020400D02*
X0020650Y0017250D01*
X0015430Y0004100D02*
Y0003900D01*
X0015680Y0003850D02*
X0015430Y0004100D01*
X0015930D02*
X0015680Y0003850D01*
X0015930Y0003900D02*
Y0004100D01*
X0015680Y0004150D02*
X0015930Y0003900D01*
X0015430D02*
X0015680Y0004150D01*
X0015440Y0004970D02*
Y0004770D01*
X0015690Y0004720D02*
X0015440Y0004970D01*
X0015940D02*
X0015690Y0004720D01*
X0015940Y0004770D02*
Y0004970D01*
X0015690Y0005020D02*
X0015940Y0004770D01*
X0015440D02*
X0015690Y0005020D01*
X0015980Y0009070D02*
Y0008870D01*
X0016230Y0008820D02*
X0015980Y0009070D01*
X0016480D02*
X0016230Y0008820D01*
X0016480Y0008870D02*
Y0009070D01*
X0016230Y0009120D02*
X0016480Y0008870D01*
X0015980D02*
X0016230Y0009120D01*
X0022800Y0007600D02*
Y0007400D01*
X0023050Y0007350D02*
X0022800Y0007600D01*
X0023300D02*
X0023050Y0007350D01*
X0023300Y0007400D02*
Y0007600D01*
X0023050Y0007650D02*
X0023300Y0007400D01*
X0022800D02*
X0023050Y0007650D01*
X0007440Y0010990D02*
X0006940Y0010490D01*
X0007440D02*
X0006940Y0010990D01*
X0006440D02*
X0005940Y0010490D01*
X0006440D02*
X0005940Y0010990D01*
X0004316Y0016649D02*
X0003816D01*
X0004066Y0016899D02*
Y0016399D01*
X0004316Y0015664D02*
X0003816D01*
X0004066Y0015914D02*
Y0015414D01*
X0004316Y0014876D02*
X0003816D01*
X0004066Y0015126D02*
Y0014626D01*
X0004316Y0013891D02*
X0003816D01*
X0004066Y0014141D02*
Y0013641D01*
X0002749Y0012929D02*
Y0012429D01*
X0003249Y0012929D02*
X0002749D01*
X0003249Y0012429D02*
Y0012929D01*
X0002749Y0012429D02*
X0003249D01*
Y0012929D02*
X0002749Y0012429D01*
X0003249D02*
X0002749Y0012929D01*
Y0018104D02*
Y0017604D01*
X0003249Y0018104D02*
X0002749D01*
X0003249Y0017604D02*
Y0018104D01*
X0002749Y0017604D02*
X0003249D01*
Y0018104D02*
X0002749Y0017604D01*
X0003249D02*
X0002749Y0018104D01*
X0007953Y0019286D02*
Y0018786D01*
X0008453Y0019286D02*
X0007953D01*
X0008453Y0018786D02*
Y0019286D01*
X0007953Y0018786D02*
X0008453D01*
Y0019036D02*
X0007953D01*
X0008203Y0019286D02*
Y0018786D01*
X0005986Y0018027D02*
Y0017527D01*
X0006486Y0018027D02*
X0005986D01*
X0006486Y0017527D02*
Y0018027D01*
X0005986Y0017527D02*
X0006486D01*
Y0017777D02*
X0005986D01*
X0006236Y0018027D02*
Y0017527D01*
X0007953Y0016847D02*
Y0016597D01*
X0008203Y0016847D02*
X0007953D01*
X0008203Y0016347D02*
Y0016847D01*
X0008453Y0016347D02*
X0008203D01*
X0008453Y0016597D02*
Y0016347D01*
X0007953Y0016597D02*
X0008453D01*
X0008400Y0003100D02*
Y0002900D01*
X0008550Y0003250D02*
X0008400Y0003100D01*
X0008750Y0003250D02*
X0008550D01*
X0008900Y0003100D02*
X0008750Y0003250D01*
X0008900Y0002900D02*
Y0003100D01*
X0008750Y0002750D02*
X0008900Y0002900D01*
X0008550Y0002750D02*
X0008750D01*
X0008400Y0002900D02*
X0008550Y0002750D01*
X0003890Y0003090D02*
Y0002890D01*
X0004040Y0003240D02*
X0003890Y0003090D01*
X0004240Y0003240D02*
X0004040D01*
X0004390Y0003090D02*
X0004240Y0003240D01*
X0004390Y0002890D02*
Y0003090D01*
X0004240Y0002740D02*
X0004390Y0002890D01*
X0004040Y0002740D02*
X0004240D01*
X0003890Y0002890D02*
X0004040Y0002740D01*
X0003340Y0002070D02*
X0003090Y0001820D01*
X0003590D02*
X0003340Y0002070D01*
Y0001570D02*
X0003590Y0001820D01*
X0003090D02*
X0003340Y0001570D01*
X0009440Y0002070D02*
X0009190Y0001820D01*
X0009690D02*
X0009440Y0002070D01*
Y0001570D02*
X0009690Y0001820D01*
X0009190D02*
X0009440Y0001570D01*
X0021500Y0003100D02*
Y0002900D01*
X0021650Y0003250D02*
X0021500Y0003100D01*
X0021850Y0003250D02*
X0021650D01*
X0022000Y0003100D02*
X0021850Y0003250D01*
X0022000Y0002900D02*
Y0003100D01*
X0021850Y0002750D02*
X0022000Y0002900D01*
X0021650Y0002750D02*
X0021850D01*
X0021500Y0002900D02*
X0021650Y0002750D01*
X0016990Y0003090D02*
Y0002890D01*
X0017140Y0003240D02*
X0016990Y0003090D01*
X0017340Y0003240D02*
X0017140D01*
X0017490Y0003090D02*
X0017340Y0003240D01*
X0017490Y0002890D02*
Y0003090D01*
X0017340Y0002740D02*
X0017490Y0002890D01*
X0017140Y0002740D02*
X0017340D01*
X0016990Y0002890D02*
X0017140Y0002740D01*
X0016440Y0002070D02*
X0016190Y0001820D01*
X0016690D02*
X0016440Y0002070D01*
Y0001570D02*
X0016690Y0001820D01*
X0016190D02*
X0016440Y0001570D01*
X0022540Y0002070D02*
X0022290Y0001820D01*
X0022790D02*
X0022540Y0002070D01*
Y0001570D02*
X0022790Y0001820D01*
X0022290D02*
X0022540Y0001570D01*
X0009400Y0012650D02*
X0008900Y0012150D01*
X0009400D02*
X0008900Y0012650D01*
X0011400D02*
X0010900Y0012150D01*
X0011400D02*
X0010900Y0012650D01*
X0022746Y0017276D02*
X0022496Y0017026D01*
X0022996D02*
X0022746Y0017276D01*
X0022496Y0017026D02*
X0022996D01*
X0001289Y0007237D02*
X0001039Y0006987D01*
X0001539D02*
X0001289Y0007237D01*
X0001039Y0006987D02*
X0001539D01*
G54D79*
G01X0024723Y0000000D02*
Y0022046D01*
X0005036D01*
Y0018900D01*
X0000002D01*
Y0000000D01*
X0024723D01*
M02*
