*
G04 Mass Parameters ***
*
G04 Image ***
*
%INC:\USERS\SIONOB\DOCUMENTS\PRODUCTS\RASPBERRY PI ADAPTER\LAYOUT\POE ADAPTER BOARD R2.SMT*%
%ICAS*%
%MOIN*%
%IPPOS*%
%ASAXBY*%
G74*%FSLAN2X34Y34*%
*
G04 Aperture Definitions ***
*
%ADD10C,0.1250*%
%ADD11R,0.0500X0.0360*%
%ADD12C,0.0550*%
%ADD13R,0.0550X0.0550*%
%ADD14R,0.0600X0.0600*%
%ADD15C,0.1200*%
%ADD16C,0.1320*%
%ADD17R,0.0320X0.1200*%
%ADD18C,0.1750*%
%ADD19C,0.1450*%
%ADD20C,0.1201*%
%ADD21C,0.0580*%
%ADD22R,0.0580X0.0580*%
%ADD23R,0.0700X0.1800*%
%ADD24R,0.0560X0.0840*%
%ADD25R,0.0550X0.0250*%
%ADD26R,0.1800X0.0600*%
%ADD27C,0.0500*%
%ADD28C,0.0010*%
%ADD29C,0.0600*%
%ADD30C,0.0300*%
%ADD31C,0.0500*%
%ADD32C,0.0400*%
%ADD33C,0.1250*%
%ADD34R,0.0600X0.0800*%
%ADD35C,0.0550*%
%ADD36R,0.0550X0.0550*%
%ADD37R,0.0600X0.0600*%
%ADD38R,0.0340X0.0320*%
%ADD39R,0.0760X0.0480*%
%ADD40R,0.0480X0.0760*%
%ADD41R,0.1000X0.0900*%
%ADD42R,0.0500X0.0360*%
%ADD43C,0.1200*%
%ADD44C,0.1320*%
%ADD45C,0.1750*%
%ADD46C,0.1450*%
%ADD47C,0.1201*%
%ADD48C,0.0580*%
%ADD49R,0.0580X0.0580*%
%ADD50R,0.0500X0.0500*%
%ADD51C,0.0500*%
%ADD52C,0.0120*%
%ADD53C,0.0200*%
%ADD54R,0.0540X0.0400*%
%ADD55C,0.1240*%
%ADD56R,0.0360X0.1240*%
%ADD57R,0.0740X0.1840*%
%ADD58R,0.0560X0.0840*%
%ADD59R,0.0590X0.0290*%
%ADD60R,0.1840X0.0640*%
*
G04 Plot Data ***
*
G54D33*
X0022746Y0017126D03*
X0001289Y0007087D03*
G54D35*
X0011880Y0018390D03*
X0013850Y0013520D03*
X0007990Y0013610D03*
X0004950Y0011870D03*
X0018250Y0013600D03*
X0020650Y0015000D03*
Y0017100D03*
X0015680Y0004000D03*
X0015690Y0004870D03*
X0016230Y0008970D03*
X0023050Y0007500D03*
X0007190Y0010740D03*
X0006190D03*
X0011150Y0012400D03*
G54D36*
X0009150D03*
G54D37*
X0003650Y0010800D03*
X0004950D03*
X0010700Y0020350D03*
Y0019050D03*
G54D45*
X0008203Y0016597D03*
G54D46*
Y0019036D03*
X0006236Y0017777D03*
G54D48*
X0004066Y0015664D03*
Y0014876D03*
Y0013891D03*
G54D49*
Y0016649D03*
G54D54*
X0011750Y0020500D03*
Y0019800D03*
G54D55*
X0002999Y0012679D03*
Y0017854D03*
X0003340Y0001820D03*
X0009440D03*
X0016440D03*
X0022540D03*
G54D56*
X0004650Y0007600D03*
X0005150D03*
X0005650D03*
X0006150D03*
X0006650D03*
X0007150D03*
X0007650D03*
X0008150D03*
X0017750D03*
X0018250D03*
X0018750D03*
X0019250D03*
X0019750D03*
X0020250D03*
X0020750D03*
X0021250D03*
G54D57*
X0005880Y0013610D03*
X0007180D03*
G54D58*
X0000850Y0011000D03*
X0002180D03*
G54D59*
X0010950Y0005600D03*
Y0005100D03*
Y0004600D03*
Y0004100D03*
Y0003600D03*
Y0003100D03*
Y0002600D03*
Y0002100D03*
X0014500D03*
Y0002600D03*
Y0003100D03*
Y0003600D03*
Y0004100D03*
Y0004600D03*
Y0005100D03*
Y0005600D03*
G54D60*
X0013650Y0020400D03*
Y0019400D03*
Y0012400D03*
Y0011400D03*
X0020650D03*
Y0012400D03*
Y0019400D03*
Y0020400D03*
M02*
