*
G04 Mass Parameters ***
*
G04 Image ***
*
%INC:\USERS\SIONOB\DOCUMENTS\PRODUCTS\RASPBERRY PI ADAPTER\LAYOUT\POE ADAPTER BOARD R2.SSB*%
%ICAS*%
%MOIN*%
%IPPOS*%
%ASAXBY*%
G74*%FSLAN2X34Y34*%
*
G04 Aperture Definitions ***
*
%ADD10C,0.1250*%
%ADD11R,0.0500X0.0360*%
%ADD12C,0.0550*%
%ADD13R,0.0550X0.0550*%
%ADD14R,0.0600X0.0600*%
%ADD15C,0.1200*%
%ADD16C,0.1320*%
%ADD17R,0.0320X0.1200*%
%ADD18C,0.1750*%
%ADD19C,0.1450*%
%ADD20C,0.1201*%
%ADD21C,0.0580*%
%ADD22R,0.0580X0.0580*%
%ADD23R,0.0700X0.1800*%
%ADD24R,0.0560X0.0840*%
%ADD25R,0.0550X0.0250*%
%ADD26R,0.1800X0.0600*%
%ADD27C,0.0500*%
%ADD28C,0.0010*%
%ADD29C,0.0600*%
%ADD30C,0.0300*%
%ADD31C,0.0500*%
%ADD32C,0.0400*%
%ADD33C,0.1250*%
%ADD34R,0.0600X0.0800*%
%ADD35C,0.0550*%
%ADD36R,0.0550X0.0550*%
%ADD37R,0.0600X0.0600*%
%ADD38R,0.0340X0.0320*%
%ADD39R,0.0760X0.0480*%
%ADD40R,0.0480X0.0760*%
%ADD41R,0.1000X0.0900*%
%ADD42R,0.0500X0.0360*%
%ADD43C,0.1200*%
%ADD44C,0.1320*%
%ADD45C,0.1750*%
%ADD46C,0.1450*%
%ADD47C,0.1201*%
%ADD48C,0.0580*%
%ADD49R,0.0580X0.0580*%
%ADD50R,0.0500X0.0500*%
%ADD51C,0.0500*%
%ADD52C,0.0120*%
%ADD53C,0.0200*%
%ADD54R,0.0540X0.0400*%
%ADD55C,0.1240*%
%ADD56R,0.0360X0.1240*%
%ADD57R,0.0740X0.1840*%
%ADD58R,0.0560X0.0840*%
%ADD59R,0.0590X0.0290*%
%ADD60R,0.1840X0.0640*%
%ADD61R,0.0380X0.0360*%
%ADD62R,0.0800X0.0520*%
%ADD63R,0.0520X0.0800*%
%ADD64R,0.1040X0.0940*%
%ADD65C,0.0080*%
%ADD66C,0.0060*%
%ADD67C,0.0100*%
%ADD68C,0.0050*%
%ADD69C,0.0150*%
*
G04 Plot Data ***
*
G54D53*
G01X0021200Y0009800D02*
Y0008810D01*
X0022500D01*
Y0009800D01*
G54D65*
G01X0018913Y0004763D02*
X0019024D01*
X0018969D02*
Y0005096D01*
X0019024Y0005041D01*
X0019351Y0004929D02*
X0019268Y0004763D01*
X0019490Y0004929D02*
X0019323D01*
X0019268Y0004985D01*
Y0005041D01*
X0019323Y0005096D01*
X0019490D01*
Y0004763D01*
X0019872D02*
Y0005096D01*
X0019900Y0004763D02*
X0019733D01*
X0019678Y0004818D01*
Y0004874D01*
X0019706Y0004929D01*
X0019872D02*
X0019706D01*
X0019678Y0004985D01*
Y0005041D01*
X0019733Y0005096D01*
X0019900D01*
X0021477Y0004802D02*
X0021700D01*
X0021477Y0005024D01*
Y0005080D01*
X0021505Y0005135D01*
X0021672D01*
X0021700Y0005080D01*
X0021971Y0004969D02*
X0021887Y0004802D01*
X0022110Y0004969D02*
X0021943D01*
X0021887Y0005024D01*
Y0005080D01*
X0021943Y0005135D01*
X0022110D01*
Y0004802D01*
X0022492D02*
Y0005135D01*
X0022520Y0004802D02*
X0022353D01*
X0022297Y0004858D01*
Y0004913D01*
X0022325Y0004969D01*
X0022492D02*
X0022325D01*
X0022297Y0005024D01*
Y0005080D01*
X0022353Y0005135D01*
X0022520D01*
G54D66*
G01X0004708Y0008787D02*
X0004653Y0008843D01*
Y0008954D01*
X0004708Y0009010D01*
X0004764D01*
X0004875Y0008899D01*
X0004986Y0009010D01*
Y0008787D01*
X0004653Y0008640D02*
Y0008529D01*
Y0008584D02*
X0004986D01*
X0004930Y0008529D01*
X0004819Y0008242D02*
X0004653Y0008325D01*
X0004819Y0008103D02*
Y0008270D01*
X0004875Y0008325D01*
X0004930D01*
X0004986Y0008270D01*
Y0008103D01*
X0004653D01*
X0003333Y0009020D02*
Y0008797D01*
X0003555Y0009020D01*
X0003610D01*
X0003666Y0008992D01*
Y0008825D01*
X0003610Y0008797D01*
X0003333Y0008650D02*
Y0008539D01*
Y0008594D02*
X0003666D01*
X0003610Y0008539D01*
X0003499Y0008252D02*
X0003333Y0008335D01*
X0003499Y0008113D02*
Y0008280D01*
X0003555Y0008335D01*
X0003610D01*
X0003666Y0008280D01*
Y0008113D01*
X0003333D01*
X0015323Y0004741D02*
X0015295Y0004685D01*
X0015128D01*
X0015100Y0004741D01*
Y0004852D01*
X0015156Y0004907D01*
X0015323D01*
Y0005019D01*
X0015100D01*
X0015470Y0004741D02*
X0015498Y0004685D01*
X0015665D01*
X0015693Y0004741D01*
Y0004963D01*
X0015665Y0005019D01*
X0015498D01*
X0015470Y0004963D01*
X0016101Y0004893D02*
X0016073Y0004948D01*
Y0005004D01*
X0016101Y0005060D01*
X0016267D01*
X0016295Y0005004D01*
Y0004948D01*
X0016267Y0004893D01*
X0016101D01*
X0016073Y0004837D01*
Y0004782D01*
X0016101Y0004726D01*
X0016267D01*
X0016295Y0004782D01*
Y0004837D01*
X0016267Y0004893D01*
X0016443Y0004782D02*
X0016471Y0004726D01*
X0016637D01*
X0016665Y0004782D01*
Y0005004D01*
X0016637Y0005060D01*
X0016471D01*
X0016443Y0005004D01*
X0015739Y0013259D02*
X0015961D01*
X0015739Y0013481D01*
Y0013537D01*
X0015767Y0013592D01*
X0015933D01*
X0015961Y0013537D01*
X0016109Y0013259D02*
X0016220D01*
X0016164D02*
Y0013592D01*
X0016220Y0013537D01*
X0016423Y0013314D02*
X0016451Y0013259D01*
X0016618D01*
X0016645Y0013314D01*
Y0013537D01*
X0016618Y0013592D01*
X0016451D01*
X0016423Y0013537D01*
X0017129Y0004696D02*
X0016962Y0005030D01*
X0017185D01*
X0017332Y0004752D02*
X0017360Y0004696D01*
X0017527D01*
X0017555Y0004752D01*
Y0004974D01*
X0017527Y0005030D01*
X0017360D01*
X0017332Y0004974D01*
X0007650Y0011691D02*
X0007873D01*
X0007762Y0011913D01*
X0007706D01*
Y0011580D01*
X0008020Y0011635D02*
X0008048Y0011580D01*
X0008215D01*
X0008243Y0011635D01*
Y0011857D01*
X0008215Y0011913D01*
X0008048D01*
X0008020Y0011857D01*
X0017428Y0012683D02*
X0017373Y0012739D01*
Y0012850D01*
X0017428Y0012906D01*
X0017484D01*
X0017595Y0012795D01*
X0017706Y0012906D01*
Y0012683D01*
X0017373Y0012341D02*
X0017706D01*
X0017373Y0012313D02*
Y0012480D01*
X0017428Y0012536D01*
X0017484D01*
X0017540Y0012508D01*
Y0012341D02*
Y0012508D01*
X0017595Y0012536D01*
X0017651D01*
X0017706Y0012480D01*
Y0012313D01*
X0017540Y0012110D02*
Y0011943D01*
X0017373D02*
X0017706D01*
Y0012166D01*
X0020743Y0011330D02*
X0020799Y0011275D01*
X0020854Y0011247D01*
X0020965D01*
X0021021Y0011275D01*
X0021077Y0011330D01*
Y0011386D01*
X0021021Y0011441D01*
X0020965Y0011469D01*
X0020854D01*
X0020799Y0011441D01*
X0020743Y0011386D01*
Y0011330D01*
Y0011099D02*
Y0010988D01*
Y0011044D02*
X0021077D01*
X0021021Y0010988D01*
X0020910Y0010701D02*
X0020743Y0010785D01*
X0020910Y0010562D02*
Y0010729D01*
X0020965Y0010785D01*
X0021021D01*
X0021077Y0010729D01*
Y0010562D01*
X0020743D01*
X0017562Y0011446D02*
Y0011224D01*
X0017784Y0011446D01*
X0017839D01*
X0017895Y0011418D01*
Y0011252D01*
X0017839Y0011224D01*
X0017562Y0010882D02*
X0017895D01*
X0017562Y0010854D02*
Y0011020D01*
X0017617Y0011076D01*
X0017673D01*
X0017728Y0011048D01*
Y0010882D02*
Y0011048D01*
X0017784Y0011076D01*
X0017839D01*
X0017895Y0011020D01*
Y0010854D01*
X0017728Y0010650D02*
Y0010484D01*
X0017562D02*
X0017895D01*
Y0010706D01*
X0021097Y0013458D02*
X0021208D01*
X0021153D02*
Y0013791D01*
X0021208Y0013735D01*
X0021412Y0013458D02*
X0021523D01*
X0021467D02*
Y0013791D01*
X0021523Y0013735D01*
X0021726Y0013513D02*
X0021754Y0013458D01*
X0021921D01*
X0021948Y0013513D01*
Y0013735D01*
X0021921Y0013791D01*
X0021754D01*
X0021726Y0013735D01*
X0017393Y0009951D02*
Y0009840D01*
Y0009896D02*
X0017727D01*
X0017671Y0009840D01*
X0017393Y0009442D02*
X0017727D01*
X0017393Y0009414D02*
Y0009581D01*
X0017449Y0009637D01*
X0017504D01*
X0017560Y0009609D01*
Y0009442D02*
Y0009609D01*
X0017615Y0009637D01*
X0017671D01*
X0017727Y0009581D01*
Y0009414D01*
X0017560Y0009211D02*
Y0009044D01*
X0017393D02*
X0017727D01*
Y0009267D01*
X0009655Y0017744D02*
Y0017522D01*
X0009877Y0017744D01*
X0009932D01*
X0009988Y0017716D01*
Y0017550D01*
X0009932Y0017522D01*
X0009821Y0017291D02*
X0009655Y0017374D01*
X0009821Y0017152D02*
Y0017318D01*
X0009877Y0017374D01*
X0009932D01*
X0009988Y0017318D01*
Y0017152D01*
X0009655D01*
X0013281Y0005193D02*
X0013253Y0005138D01*
X0013086D01*
X0013058Y0005193D01*
Y0005304D01*
X0013114Y0005360D01*
X0013281D01*
Y0005471D01*
X0013058D01*
X0013512Y0005304D02*
X0013428Y0005138D01*
X0013651Y0005304D02*
X0013484D01*
X0013428Y0005360D01*
Y0005415D01*
X0013484Y0005471D01*
X0013651D01*
Y0005138D01*
X0016230Y0006707D02*
X0016063Y0007040D01*
X0016285D01*
X0016516Y0006873D02*
X0016433Y0006707D01*
X0016655Y0006873D02*
X0016489D01*
X0016433Y0006929D01*
Y0006984D01*
X0016489Y0007040D01*
X0016655D01*
Y0006707D01*
X0020013Y0010105D02*
Y0009883D01*
X0020236Y0009994D01*
Y0010049D01*
X0019902D01*
Y0009541D02*
X0020236D01*
X0019902Y0009513D02*
Y0009679D01*
X0019958Y0009735D01*
X0020013D01*
X0020069Y0009707D01*
Y0009541D02*
Y0009707D01*
X0020124Y0009735D01*
X0020180D01*
X0020236Y0009679D01*
Y0009513D01*
X0020069Y0009309D02*
Y0009143D01*
X0019902D02*
X0020236D01*
Y0009365D01*
X0009615Y0015103D02*
Y0014881D01*
X0009838Y0014992D01*
Y0015048D01*
X0009504D01*
X0009671Y0014650D02*
X0009504Y0014733D01*
X0009671Y0014511D02*
Y0014678D01*
X0009726Y0014733D01*
X0009782D01*
X0009838Y0014678D01*
Y0014511D01*
X0009504D01*
X0013265Y0007385D02*
X0013237Y0007440D01*
Y0007496D01*
X0013265Y0007551D01*
X0013432D01*
X0013459Y0007496D01*
Y0007440D01*
X0013432Y0007385D01*
X0013265D01*
X0013237Y0007329D01*
Y0007273D01*
X0013265Y0007218D01*
X0013432D01*
X0013459Y0007273D01*
Y0007329D01*
X0013432Y0007385D01*
X0013690D02*
X0013607Y0007218D01*
X0013829Y0007385D02*
X0013663D01*
X0013607Y0007440D01*
Y0007496D01*
X0013663Y0007551D01*
X0013829D01*
Y0007218D01*
X0017221Y0006990D02*
X0017054D01*
X0017026Y0006934D01*
Y0006879D01*
X0017054Y0006823D01*
X0017221D01*
X0017248Y0006879D01*
Y0006934D01*
X0017137Y0007157D01*
X0017396Y0006879D02*
X0017424Y0006823D01*
X0017591D01*
X0017618Y0006879D01*
Y0007101D01*
X0017591Y0007157D01*
X0017424D01*
X0017396Y0007101D01*
X0021903Y0011766D02*
X0022036D01*
X0021969D02*
Y0012166D01*
X0022036Y0012099D01*
X0022489Y0011766D02*
Y0012166D01*
X0022523Y0011766D02*
X0022323D01*
X0022256Y0011899D01*
Y0012032D01*
X0022323Y0012166D01*
X0022523D01*
X0021279Y0015538D02*
X0021335Y0015593D01*
X0021362Y0015649D01*
Y0015760D01*
X0021335Y0015816D01*
X0021279Y0015871D01*
X0021223D01*
X0021168Y0015816D01*
X0021140Y0015760D01*
Y0015649D01*
X0021168Y0015593D01*
X0021223Y0015538D01*
X0021279D01*
X0021510D02*
X0021621D01*
X0021566D02*
Y0015871D01*
X0021621Y0015816D01*
X0021824Y0015593D02*
X0021852Y0015538D01*
X0022019D01*
X0022047Y0015593D01*
Y0015816D01*
X0022019Y0015871D01*
X0021852D01*
X0021824Y0015816D01*
X0013139Y0004098D02*
X0013306D01*
X0013334Y0004153D01*
Y0004209D01*
X0013306Y0004264D01*
X0013139D01*
X0013111Y0004209D01*
Y0004153D01*
X0013223Y0003931D01*
X0013481Y0003986D02*
X0013509Y0003931D01*
X0013676D01*
X0013704Y0003986D01*
Y0004209D01*
X0013676Y0004264D01*
X0013509D01*
X0013481Y0004209D01*
X0020140Y0012808D02*
Y0012975D01*
X0020084Y0013003D01*
X0020028D01*
X0019973Y0012975D01*
Y0012808D01*
X0020028Y0012780D01*
X0020084D01*
X0020306Y0012892D01*
X0019973Y0012438D02*
X0020306D01*
X0019973Y0012410D02*
Y0012577D01*
X0020028Y0012633D01*
X0020084D01*
X0020140Y0012605D01*
Y0012438D02*
Y0012605D01*
X0020195Y0012633D01*
X0020251D01*
X0020306Y0012577D01*
Y0012410D01*
X0020140Y0012207D02*
Y0012040D01*
X0019973D02*
X0020306D01*
Y0012263D01*
X0016451Y0011088D02*
Y0010921D01*
X0016507Y0010893D01*
X0016562D01*
X0016618Y0010921D01*
Y0011088D01*
X0016562Y0011115D01*
X0016507D01*
X0016285Y0011004D01*
X0016451Y0010662D02*
X0016285Y0010745D01*
X0016451Y0010523D02*
Y0010690D01*
X0016507Y0010745D01*
X0016562D01*
X0016618Y0010690D01*
Y0010523D01*
X0016285D01*
X0012121Y0015482D02*
Y0015371D01*
Y0015426D02*
X0012454D01*
X0012399Y0015371D01*
X0012121Y0015167D02*
Y0015056D01*
Y0015112D02*
X0012454D01*
X0012399Y0015056D01*
X0012288Y0014770D02*
X0012121Y0014853D01*
X0012288Y0014631D02*
Y0014797D01*
X0012343Y0014853D01*
X0012399D01*
X0012454Y0014797D01*
Y0014631D01*
X0012121D01*
X0012087Y0017541D02*
X0012031Y0017597D01*
Y0017708D01*
X0012087Y0017764D01*
X0012142D01*
X0012253Y0017653D01*
X0012365Y0017764D01*
Y0017541D01*
X0012198Y0017310D02*
X0012031Y0017394D01*
X0012198Y0017171D02*
Y0017338D01*
X0012253Y0017394D01*
X0012309D01*
X0012365Y0017338D01*
Y0017171D01*
X0012031D01*
X0015199Y0006893D02*
X0015032D01*
X0015004Y0006837D01*
Y0006782D01*
X0015032Y0006726D01*
X0015199D01*
X0015226Y0006782D01*
Y0006837D01*
X0015115Y0007060D01*
X0015457Y0006893D02*
X0015374Y0006726D01*
X0015596Y0006893D02*
X0015430D01*
X0015374Y0006948D01*
Y0007004D01*
X0015430Y0007060D01*
X0015596D01*
Y0006726D01*
X0018758Y0011283D02*
X0018703Y0011311D01*
Y0011477D01*
X0018758Y0011505D01*
X0018869D01*
X0018925Y0011449D01*
Y0011283D01*
X0019036D01*
Y0011505D01*
X0018703Y0010941D02*
X0019036D01*
X0018703Y0010913D02*
Y0011079D01*
X0018758Y0011135D01*
X0018814D01*
X0018869Y0011107D01*
Y0010941D02*
Y0011107D01*
X0018925Y0011135D01*
X0018980D01*
X0019036Y0011079D01*
Y0010913D01*
X0018869Y0010709D02*
Y0010543D01*
X0018703D02*
X0019036D01*
Y0010765D01*
X0004120Y0011310D02*
X0003120D01*
Y0009410D01*
X0004120D01*
Y0011310D01*
X0005300Y0011300D02*
X0004300D01*
Y0009400D01*
X0005300D01*
Y0011300D01*
X0019800Y0009000D02*
X0019100D01*
Y0010300D01*
X0019800D01*
Y0009000D01*
X0014700Y0007200D02*
X0014000D01*
Y0008500D01*
X0014700D01*
Y0007200D01*
X0017400Y0008450D02*
Y0007350D01*
X0016900D01*
Y0008450D01*
X0017400D01*
X0011905Y0016200D02*
X0011155D01*
Y0017800D01*
X0011905D01*
Y0016200D01*
X0016700Y0007200D02*
X0016000D01*
Y0008500D01*
X0016700D01*
Y0007200D01*
X0015200Y0005250D02*
Y0006350D01*
X0015700D01*
Y0005250D01*
X0015200D01*
X0016100D02*
Y0006350D01*
X0016600D01*
Y0005250D01*
X0016100D01*
X0014800Y0013100D02*
Y0012100D01*
X0016700D01*
Y0013100D01*
X0014800D01*
X0016900Y0005250D02*
Y0006350D01*
X0017400D01*
Y0005250D01*
X0016900D01*
X0005400Y0011550D02*
X0007600D01*
Y0012450D01*
X0005400D01*
Y0011550D01*
X0018600Y0011800D02*
X0017900D01*
Y0013100D01*
X0018600D01*
Y0011800D01*
X0020700Y0010400D02*
X0020000D01*
Y0011700D01*
X0020700D01*
Y0010400D01*
X0018600D02*
X0017900D01*
Y0011700D01*
X0018600D01*
Y0010400D01*
X0019100Y0014400D02*
Y0013400D01*
X0021000D01*
Y0014400D01*
X0019100D01*
X0018600Y0009000D02*
X0017900D01*
Y0010300D01*
X0018600D01*
Y0009000D01*
X0010905Y0016200D02*
X0010155D01*
Y0017800D01*
X0010905D01*
Y0016200D01*
Y0014500D02*
X0010155D01*
Y0016100D01*
X0010905D01*
Y0014500D01*
X0021150Y0011650D02*
Y0008850D01*
X0022550D01*
Y0011650D01*
X0021150D01*
X0019100Y0016500D02*
Y0015500D01*
X0021000D01*
Y0016500D01*
X0019100D01*
X0013850Y0002450D02*
X0014850D01*
Y0004350D01*
X0013850D01*
Y0002450D01*
X0019800Y0011800D02*
X0019100D01*
Y0013100D01*
X0019800D01*
Y0011800D01*
X0017500Y0010400D02*
X0016800D01*
Y0011700D01*
X0017500D01*
Y0010400D01*
X0011905Y0014500D02*
X0011155D01*
Y0016100D01*
X0011905D01*
Y0014500D01*
X0015700Y0007200D02*
X0015000D01*
Y0008500D01*
X0015700D01*
Y0007200D01*
X0019800Y0010400D02*
X0019100D01*
Y0011700D01*
X0019800D01*
Y0010400D01*
X0014600Y0005100D02*
X0013900D01*
Y0006400D01*
X0014600D01*
Y0005100D01*
G54D67*
G01X0018075Y0008500D02*
X0019950D01*
Y0005250D01*
X0017950D01*
Y0008375D01*
X0018075Y0008500D01*
X0020675D02*
X0022550D01*
Y0005250D01*
X0020550D01*
Y0008375D01*
X0020675Y0008500D01*
M02*
