*
G04 Mass Parameters ***
*
G04 Image ***
*
%INC:\USERS\SIONOB\DOCUMENTS\PRODUCTS\RASPBERRY PI ADAPTER\LAYOUT\POE ADAPTER BOARD R2.AST*%
%ICAS*%
%MOIN*%
%IPPOS*%
%ASAXBY*%
G74*%FSLAN2X34Y34*%
*
G04 Aperture Definitions ***
*
%ADD10C,0.1250*%
%ADD11R,0.0500X0.0360*%
%ADD12C,0.0550*%
%ADD13R,0.0550X0.0550*%
%ADD14R,0.0600X0.0600*%
%ADD15C,0.1200*%
%ADD16C,0.1320*%
%ADD17R,0.0320X0.1200*%
%ADD18C,0.1750*%
%ADD19C,0.1450*%
%ADD20C,0.1201*%
%ADD21C,0.0580*%
%ADD22R,0.0580X0.0580*%
%ADD23R,0.0700X0.1800*%
%ADD24R,0.0560X0.0840*%
%ADD25R,0.0550X0.0250*%
%ADD26R,0.1800X0.0600*%
%ADD27C,0.0500*%
%ADD28C,0.0010*%
%ADD29C,0.0600*%
%ADD30C,0.0300*%
%ADD31C,0.0500*%
%ADD32C,0.0400*%
%ADD33C,0.1250*%
%ADD34R,0.0600X0.0800*%
%ADD35C,0.0550*%
%ADD36R,0.0550X0.0550*%
%ADD37R,0.0600X0.0600*%
%ADD38R,0.0340X0.0320*%
%ADD39R,0.0760X0.0480*%
%ADD40R,0.0480X0.0760*%
%ADD41R,0.1000X0.0900*%
%ADD42R,0.0500X0.0360*%
%ADD43C,0.1200*%
%ADD44C,0.1320*%
%ADD45C,0.1750*%
%ADD46C,0.1450*%
%ADD47C,0.1201*%
%ADD48C,0.0580*%
%ADD49R,0.0580X0.0580*%
%ADD50R,0.0500X0.0500*%
%ADD51C,0.0500*%
%ADD52C,0.0120*%
%ADD53C,0.0200*%
%ADD54R,0.0540X0.0400*%
%ADD55C,0.1240*%
%ADD56R,0.0360X0.1240*%
%ADD57R,0.0740X0.1840*%
%ADD58R,0.0560X0.0840*%
%ADD59R,0.0590X0.0290*%
%ADD60R,0.1840X0.0640*%
%ADD61R,0.0380X0.0360*%
%ADD62R,0.0800X0.0520*%
%ADD63R,0.0520X0.0800*%
%ADD64R,0.1040X0.0940*%
%ADD65C,0.0080*%
%ADD66C,0.0060*%
%ADD67C,0.0100*%
%ADD68C,0.0050*%
%ADD69C,0.0150*%
%ADD70C,0.0550*%
%ADD71R,0.0550X0.0550*%
%ADD72R,0.0600X0.0600*%
%ADD73C,0.1750*%
%ADD74C,0.1450*%
%ADD75C,0.1181*%
%ADD76C,0.0580*%
%ADD77R,0.0580X0.0580*%
%ADD78R,0.0560X0.0840*%
%ADD79C,0.0079*%
*
G04 Plot Data ***
*
G54D65*
G01X0003341Y0015083D02*
Y0014916D01*
X0003285Y0014889D01*
X0003230D01*
X0003174Y0014916D01*
Y0015083D01*
X0003230Y0015111D01*
X0003285D01*
X0003507Y0015000D01*
Y0015299D02*
X0003174D01*
X0003230Y0015354D01*
X0003452Y0015465D01*
X0003507Y0015521D01*
X0003174D01*
Y0015903D02*
X0003230Y0015931D01*
X0003452D01*
X0003507Y0015903D01*
Y0015736D01*
X0003452Y0015709D01*
X0003230D01*
X0003174Y0015736D01*
Y0015903D01*
X0003230Y0016119D02*
X0003174Y0016146D01*
Y0016313D01*
X0003230Y0016341D01*
X0003452D01*
X0003507Y0016313D01*
Y0016146D01*
X0003452Y0016119D01*
X0003898Y0017344D02*
Y0017455D01*
Y0017399D02*
X0004232D01*
X0004176Y0017455D01*
X0004009Y0012788D02*
Y0013010D01*
X0004232Y0012899D01*
Y0012844D01*
X0003898D01*
X0001124Y0013138D02*
Y0014688D01*
Y0016688D01*
Y0017238D01*
X0000124D01*
Y0013138D01*
X0001124D01*
X0006815Y0010990D02*
X0006565D01*
Y0010490D02*
X0006815D01*
G01X0008150Y0012400D02*
G03X0010150Y0010400I0002000J0000000D01*
G03X0012150Y0012400I0000000J0002000D01*
G03X0010150Y0014400I0002000J0000000D01*
G03X0008150Y0012400I0000000J0002000D01*
G54D66*
G01X0004170Y0011133D02*
X0004059D01*
X0004114D02*
Y0011466D01*
X0004059Y0011410D01*
X0003772Y0011299D02*
X0003855Y0011133D01*
X0003633Y0011299D02*
X0003800D01*
X0003855Y0011355D01*
Y0011410D01*
X0003800Y0011466D01*
X0003633D01*
Y0011133D01*
X0004457Y0010244D02*
X0004234D01*
X0004345Y0010466D01*
X0004401D01*
Y0010132D01*
X0004087D02*
X0003920Y0010299D01*
X0004087Y0010466D01*
X0003864D02*
Y0010132D01*
X0003717D02*
X0003494D01*
X0003717Y0010355D01*
Y0010410D01*
X0003689Y0010466D01*
X0003522D01*
X0003494Y0010410D01*
X0011088Y0019997D02*
X0011033Y0019941D01*
Y0019830D01*
X0011088Y0019774D01*
X0011144D01*
X0011255Y0019886D01*
X0011366Y0019774D01*
Y0019997D01*
X0011088Y0020144D02*
X0011033Y0020172D01*
Y0020339D01*
X0011088Y0020367D01*
X0011310D01*
X0011366Y0020339D01*
Y0020172D01*
X0011310Y0020144D01*
X0010199Y0019285D02*
Y0019451D01*
X0010032D02*
X0010366D01*
Y0019229D01*
X0010255Y0019627D02*
X0010032D01*
Y0019599D02*
Y0019793D01*
X0010088Y0019821D01*
X0010255D01*
X0010032Y0020108D02*
X0010088Y0020163D01*
X0010144Y0020191D01*
X0010255D01*
X0010310Y0020163D01*
X0010366Y0020108D01*
Y0020052D01*
X0010310Y0019997D01*
X0010255Y0019969D01*
X0010144D01*
X0010088Y0019997D01*
X0010032Y0020052D01*
Y0020108D01*
Y0020339D02*
Y0020450D01*
Y0020394D02*
X0010366D01*
X0010310Y0020450D01*
X0005400Y0010350D02*
X0003200D01*
Y0011250D01*
X0005400D01*
Y0010350D01*
X0010250Y0018600D02*
Y0020800D01*
X0011150D01*
Y0018600D01*
X0010250D01*
X0002695Y0011600D02*
Y0011075D01*
X0002770Y0011000D01*
X0002695Y0010925D01*
Y0010400D01*
X0002700Y0011600D02*
X0000340D01*
Y0010400D01*
X0002700D01*
G54D79*
G01X0024723Y0000000D02*
Y0022046D01*
X0005036D01*
Y0018900D01*
X0000002D01*
Y0000000D01*
X0024723D01*
G54D70*
X0007190Y0010740D03*
X0006190D03*
X0011150Y0012400D03*
G54D71*
X0009150D03*
G54D72*
X0003650Y0010800D03*
X0004950D03*
X0010700Y0020350D03*
Y0019050D03*
G54D73*
X0008203Y0016597D03*
G54D74*
Y0019036D03*
X0006236Y0017777D03*
G54D75*
X0002999Y0012679D03*
Y0017854D03*
G54D76*
X0004066Y0015664D03*
Y0014876D03*
Y0013891D03*
G54D77*
Y0016649D03*
G54D78*
X0000850Y0011000D03*
X0002180D03*
M02*
