%
T1C0.0280F200S100
X004950Y011870
X007990Y013610
X011880Y018390
X013850Y013520
X015680Y004000
X015690Y004870
X016230Y008970
X018250Y013600
X020650Y015000
X020650Y017100
X023050Y007500
T4C0.0700F200S100
X003340Y001820
X009440Y001820
X016440Y001820
X022540Y001820
T6C0.1100F200S100
X006236Y017777
X008203Y019036
T7C0.1250F200S100
X008203Y016597
T3C0.0401F200S100
X004066Y013891
X004066Y014876
X004066Y015664
X004066Y016649
T5C0.0945F200S100
X002999Y012679
X002999Y017854
T2C0.0340F200S100
X006190Y010740
X007190Y010740
X009150Y012400
X011150Y012400
M30
